<?xml version="1.0" standalone="no"?>
  <!DOCTYPE svg PUBLIC "-//W3C//DTD SVG 1.1//EN" "http://www.w3.org/Graphics/SVG/1.1/DTD/svg11.dtd" >
  <svg>
  <metadata>
  Created by font-carrier
  </metadata>
  <defs>
  <font id="AdvancedPixelLCD-7" horiz-adv-x="1150" vert-adv-y="1150" >
    <font-face
      
      font-family="Advanced Pixel LCD-7"
      
      font-weight="400"
      
      font-stretch="normal"
      
      units-per-em="1000"
      
      ascent="750"
      
      descent="-250"
      
    />
      <missing-glyph />

      

      
      <glyph glyph-name="uni24" unicode="&#x24;" d="M0 1450L50 1450L50 1500L450 1500L450 1300L500 1300L500 1500L900 1500L900 1450L850 1450L850 1400L800 1400L800 1350L750 1350L750 1300L500 1300L500 1250L550 1250L550 900L400 900L400 1250L450 1250L450 1300L200 1300L200 800L250 800L250 850L700 850L700 800L750 800L750 700L850 700L850 650L900 650L900 600L950 600L950 50L900 50L900 0L500 0L500 200L450 200L450 0L50 0L50 50L100 50L100 100L150 100L150 150L200 150L200 200L450 200L450 250L400 250L400 600L550 600L550 250L500 250L500 200L750 200L750 700L700 700L700 650L250 650L250 700L200 700L200 800L100 800L100 850L50 850L50 900L0 900L0 1450M50 1400L100 1400L100 1450L50 1450L50 1400M100 1350L150 1350L150 1400L100 1400L100 1350M150 1300L200 1300L200 1350L150 1350L150 1300M750 150L800 150L800 200L750 200L750 150M800 100L850 100L850 150L800 150L800 100M850 50L900 50L900 100L850 100L850 50Z"  horiz-adv-x="1150" vert-adv-y="1000"  />

      
      <glyph glyph-name="uni25" unicode="&#x25;" d="M0 600L50 600L50 650L100 650L100 700L200 700L200 800L250 800L250 850L700 850L700 800L750 800L750 1300L800 1300L800 1350L850 1350L850 1400L900 1400L900 1450L950 1450L950 900L900 900L900 850L850 850L850 800L750 800L750 700L700 700L700 650L250 650L250 700L200 700L200 200L150 200L150 150L100 150L100 100L50 100L50 50L0 50L0 600M0 1450L50 1450L50 1500L250 1500L250 1300L200 1300L200 1250L0 1250L0 1450M700 200L750 200L750 250L950 250L950 50L900 50L900 0L700 0L700 200M750 150L800 150L800 200L750 200L750 150M800 100L850 100L850 150L800 150L800 100M850 50L900 50L900 100L850 100L850 50M50 1400L100 1400L100 1450L50 1450L50 1400M100 1350L150 1350L150 1400L100 1400L100 1350M150 1300L200 1300L200 1350L150 1350L150 1300Z"  horiz-adv-x="1150" vert-adv-y="1000"  />

      
      <glyph glyph-name="uni26" unicode="&#x26;" d="M0 1450L50 1450L50 1500L450 1500L450 1300L200 1300L200 800L250 800L250 850L700 850L700 800L750 800L750 1300L500 1300L500 1500L900 1500L900 1450L950 1450L950 900L900 900L900 850L950 850L950 650L900 650L900 600L950 600L950 300L900 300L900 250L950 250L950 50L900 50L900 0L500 0L500 200L750 200L750 700L700 700L700 650L250 650L250 700L200 700L200 200L450 200L450 0L50 0L50 50L0 50L0 600L50 600L50 650L100 650L100 700L200 700L200 800L100 800L100 850L50 850L50 900L0 900L0 1450M750 700L850 700L850 800L750 800L750 700M850 200L750 200L750 150L800 150L800 100L850 100L850 200M750 1300L800 1300L800 1350L750 1350L750 1300M800 1350L850 1350L850 1400L800 1400L800 1350M850 50L900 50L900 100L850 100L850 50M850 200L900 200L900 250L850 250L850 200M850 650L900 650L900 700L850 700L850 650M850 800L900 800L900 850L850 850L850 800M850 1400L900 1400L900 1450L850 1450L850 1400M50 50L100 50L100 100L50 100L50 50M50 1400L100 1400L100 1450L50 1450L50 1400M100 100L150 100L150 150L100 150L100 100M100 1350L150 1350L150 1400L100 1400L100 1350M150 150L200 150L200 200L150 200L150 150M150 1300L200 1300L200 1350L150 1350L150 1300Z"  horiz-adv-x="1150" vert-adv-y="1000"  />

      
      <glyph glyph-name="uni27" unicode="&#x27;" d="M0 1450L50 1450L50 1400L100 1400L100 1350L150 1350L150 1300L200 1300L200 800L100 800L100 850L50 850L50 900L0 900L0 1450Z"  horiz-adv-x="1150" vert-adv-y="1000"  />

      
      <glyph glyph-name="uni28" unicode="&#x28;" d="M0 1450L50 1450L50 1500L450 1500L450 1300L200 1300L200 800L100 800L100 700L200 700L200 200L450 200L450 0L50 0L50 50L0 50L0 600L50 600L50 650L0 650L0 850L50 850L50 900L0 900L0 1450M50 50L100 50L100 100L50 100L50 50M50 650L100 650L100 700L50 700L50 650M50 800L100 800L100 850L50 850L50 800M50 1400L100 1400L100 1450L50 1450L50 1400M100 100L150 100L150 150L100 150L100 100M100 1350L150 1350L150 1400L100 1400L100 1350M150 150L200 150L200 200L150 200L150 150M150 1300L200 1300L200 1350L150 1350L150 1300Z"  horiz-adv-x="1150" vert-adv-y="1000"  />

      
      <glyph glyph-name="uni29" unicode="&#x29;" d="M500 1500L900 1500L900 1450L950 1450L950 900L900 900L900 850L950 850L950 650L900 650L900 600L950 600L950 50L900 50L900 0L500 0L500 200L750 200L750 700L850 700L850 800L750 800L750 1300L500 1300L500 1500M850 1400L900 1400L900 1450L850 1450L850 1400M850 650L900 650L900 700L850 700L850 650M750 150L800 150L800 200L750 200L750 150M750 1300L800 1300L800 1350L750 1350L750 1300M800 100L850 100L850 150L800 150L800 100M800 1350L850 1350L850 1400L800 1400L800 1350M850 50L900 50L900 100L850 100L850 50M850 800L900 800L900 850L850 850L850 800Z"  horiz-adv-x="1150" vert-adv-y="1000"  />

      
      <glyph glyph-name="uni2a" unicode="&#x2a;" d="M150 800L200 800L200 850L700 850L700 800L750 800L750 700L700 700L700 650L200 650L200 700L150 700L150 800M350 1050L400 1050L400 1100L500 1100L500 1050L550 1050L550 900L350 900L350 1050M350 600L550 600L550 450L500 450L500 400L400 400L400 450L350 450L350 600M600 1100L700 1100L700 1050L750 1050L750 900L600 900L600 1100M150 1050L200 1050L200 1100L300 1100L300 900L150 900L150 1050M150 600L300 600L300 400L200 400L200 450L150 450L150 600M600 600L750 600L750 450L700 450L700 400L600 400L600 600Z"  horiz-adv-x="1150" vert-adv-y="1000"  />

      
      <glyph glyph-name="uni2b" unicode="&#x2b;" d="M150 800L200 800L200 850L700 850L700 800L750 800L750 700L700 700L700 650L200 650L200 700L150 700L150 800M350 1050L400 1050L400 1100L500 1100L500 1050L550 1050L550 900L350 900L350 1050M350 600L550 600L550 450L500 450L500 400L400 400L400 450L350 450L350 600Z"  horiz-adv-x="1150" vert-adv-y="1000"  />

      
      <glyph glyph-name="uni2c" unicode="&#x2c;" d="M350 200L550 200L550 150L600 150L600 100L650 100L650 50L700 50L700 0L350 0L350 200Z"  horiz-adv-x="1150" vert-adv-y="1000"  />

      
      <glyph glyph-name="uni2d" unicode="&#x2d;" d="M200 800L250 800L250 850L700 850L700 800L750 800L750 700L700 700L700 650L250 650L250 700L200 700L200 800Z"  horiz-adv-x="1150" vert-adv-y="1000"  />

      
      <glyph glyph-name="uni2e" unicode="&#x2e;" d="M350 200L550 200L550 0L350 0L350 200Z"  horiz-adv-x="1150" vert-adv-y="1000"  />

      
      <glyph glyph-name="uni2f" unicode="&#x2f;" d="M0 600L50 600L50 650L100 650L100 700L200 700L200 800L250 800L250 850L700 850L700 800L750 800L750 1300L800 1300L800 1350L850 1350L850 1400L900 1400L900 1450L950 1450L950 900L900 900L900 850L850 850L850 800L750 800L750 700L700 700L700 650L250 650L250 700L200 700L200 200L150 200L150 150L100 150L100 100L50 100L50 50L0 50L0 600Z"  horiz-adv-x="1150" vert-adv-y="1000"  />

      
      <glyph glyph-name="uni30" unicode="&#x30;" d="M0 1450L50 1450L50 1500L450 1500L450 1300L200 1300L200 800L100 800L100 700L200 700L200 200L450 200L450 0L50 0L50 50L0 50L0 600L50 600L50 650L0 650L0 850L50 850L50 900L0 900L0 1450M500 1500L900 1500L900 1450L950 1450L950 900L900 900L900 850L950 850L950 650L900 650L900 600L950 600L950 50L900 50L900 0L500 0L500 200L750 200L750 700L850 700L850 800L750 800L750 1300L500 1300L500 1500M850 50L900 50L900 100L850 100L850 50M850 800L900 800L900 850L850 850L850 800M850 650L900 650L900 700L850 700L850 650M800 1350L850 1350L850 1400L800 1400L800 1350M850 1400L900 1400L900 1450L850 1450L850 1400M50 50L100 50L100 100L50 100L50 50M50 650L100 650L100 700L50 700L50 650M50 800L100 800L100 850L50 850L50 800M50 1400L100 1400L100 1450L50 1450L50 1400M100 100L150 100L150 150L100 150L100 100M100 1350L150 1350L150 1400L100 1400L100 1350M150 150L200 150L200 200L150 200L150 150M150 1300L200 1300L200 1350L150 1350L150 1300M750 150L800 150L800 200L750 200L750 150M750 1300L800 1300L800 1350L750 1350L750 1300M800 100L850 100L850 150L800 150L800 100Z"  horiz-adv-x="1150" vert-adv-y="1000"  />

      
      <glyph glyph-name="uni31" unicode="&#x31;" d="M500 1500L900 1500L900 1450L950 1450L950 900L900 900L900 850L950 850L950 650L900 650L900 600L950 600L950 50L900 50L900 100L850 100L850 150L800 150L800 200L750 200L750 700L850 700L850 800L750 800L750 1300L500 1300L500 1500M850 1400L900 1400L900 1450L850 1450L850 1400M750 1300L800 1300L800 1350L750 1350L750 1300M800 1350L850 1350L850 1400L800 1400L800 1350M850 650L900 650L900 700L850 700L850 650M850 800L900 800L900 850L850 850L850 800Z"  horiz-adv-x="1150" vert-adv-y="1000"  />

      
      <glyph glyph-name="uni32" unicode="&#x32;" d="M500 1500L900 1500L900 1450L950 1450L950 900L900 900L900 850L850 850L850 800L750 800L750 700L700 700L700 650L250 650L250 700L200 700L200 200L450 200L450 0L50 0L50 50L0 50L0 600L50 600L50 650L100 650L100 700L200 700L200 800L250 800L250 850L700 850L700 800L750 800L750 1300L500 1300L500 1500M50 1500L450 1500L450 1300L200 1300L200 1350L150 1350L150 1400L100 1400L100 1450L50 1450L50 1500M500 200L750 200L750 150L800 150L800 100L850 100L850 50L900 50L900 0L500 0L500 200M50 50L100 50L100 100L50 100L50 50M100 100L150 100L150 150L100 150L100 100M150 150L200 150L200 200L150 200L150 150M750 1300L800 1300L800 1350L750 1350L750 1300M800 1350L850 1350L850 1400L800 1400L800 1350M850 1400L900 1400L900 1450L850 1450L850 1400Z"  horiz-adv-x="1150" vert-adv-y="1000"  />

      
      <glyph glyph-name="uni33" unicode="&#x33;" d="M500 1500L900 1500L900 1450L950 1450L950 900L900 900L900 850L950 850L950 650L900 650L900 600L950 600L950 50L900 50L900 0L500 0L500 200L750 200L750 700L700 700L700 650L250 650L250 700L200 700L200 800L250 800L250 850L700 850L700 800L750 800L750 1300L500 1300L500 1500M50 1500L450 1500L450 1300L200 1300L200 1350L150 1350L150 1400L100 1400L100 1450L50 1450L50 1500M50 50L100 50L100 100L150 100L150 150L200 150L200 200L450 200L450 0L50 0L50 50M750 700L850 700L850 800L750 800L750 700M800 1350L850 1350L850 1400L800 1400L800 1350M750 150L800 150L800 200L750 200L750 150M750 1300L800 1300L800 1350L750 1350L750 1300M800 100L850 100L850 150L800 150L800 100M850 50L900 50L900 100L850 100L850 50M850 650L900 650L900 700L850 700L850 650M850 800L900 800L900 850L850 850L850 800M850 1400L900 1400L900 1450L850 1450L850 1400Z"  horiz-adv-x="1150" vert-adv-y="1000"  />

      
      <glyph glyph-name="uni34" unicode="&#x34;" d="M0 1450L50 1450L50 1400L100 1400L100 1350L150 1350L150 1300L200 1300L200 800L250 800L250 850L700 850L700 800L750 800L750 1300L800 1300L800 1350L850 1350L850 1400L900 1400L900 1450L950 1450L950 900L900 900L900 850L950 850L950 650L900 650L900 600L950 600L950 50L900 50L900 100L850 100L850 150L800 150L800 200L750 200L750 700L700 700L700 650L250 650L250 700L200 700L200 800L100 800L100 850L50 850L50 900L0 900L0 1450M750 700L850 700L850 800L750 800L750 700M850 650L900 650L900 700L850 700L850 650M850 800L900 800L900 850L850 850L850 800Z"  horiz-adv-x="1150" vert-adv-y="1000"  />

      
      <glyph glyph-name="uni35" unicode="&#x35;" d="M0 1450L50 1450L50 1500L450 1500L450 1300L200 1300L200 800L250 800L250 850L700 850L700 800L750 800L750 700L850 700L850 650L900 650L900 600L950 600L950 50L900 50L900 0L500 0L500 200L750 200L750 700L700 700L700 650L250 650L250 700L200 700L200 800L100 800L100 850L50 850L50 900L0 900L0 1450M500 1500L900 1500L900 1450L850 1450L850 1400L800 1400L800 1350L750 1350L750 1300L500 1300L500 1500M50 50L100 50L100 100L150 100L150 150L200 150L200 200L450 200L450 0L50 0L50 50M50 1400L100 1400L100 1450L50 1450L50 1400M100 1350L150 1350L150 1400L100 1400L100 1350M150 1300L200 1300L200 1350L150 1350L150 1300M750 150L800 150L800 200L750 200L750 150M800 100L850 100L850 150L800 150L800 100M850 50L900 50L900 100L850 100L850 50Z"  horiz-adv-x="1150" vert-adv-y="1000"  />

      
      <glyph glyph-name="uni36" unicode="&#x36;" d="M0 1450L50 1450L50 1500L450 1500L450 1300L200 1300L200 800L250 800L250 850L700 850L700 800L750 800L750 700L850 700L850 650L900 650L900 600L950 600L950 50L900 50L900 0L500 0L500 200L750 200L750 700L700 700L700 650L250 650L250 700L200 700L200 200L450 200L450 0L50 0L50 50L0 50L0 600L50 600L50 650L0 650L0 850L50 850L50 900L0 900L0 1450M500 1500L900 1500L900 1450L850 1450L850 1400L800 1400L800 1350L750 1350L750 1300L500 1300L500 1500M100 700L200 700L200 800L100 800L100 700M50 50L100 50L100 100L50 100L50 50M50 650L100 650L100 700L50 700L50 650M50 800L100 800L100 850L50 850L50 800M50 1400L100 1400L100 1450L50 1450L50 1400M100 100L150 100L150 150L100 150L100 100M100 1350L150 1350L150 1400L100 1400L100 1350M150 150L200 150L200 200L150 200L150 150M150 1300L200 1300L200 1350L150 1350L150 1300M750 150L800 150L800 200L750 200L750 150M800 100L850 100L850 150L800 150L800 100M850 50L900 50L900 100L850 100L850 50Z"  horiz-adv-x="1150" vert-adv-y="1000"  />

      
      <glyph glyph-name="uni37" unicode="&#x37;" d="M500 1500L900 1500L900 1450L950 1450L950 900L900 900L900 850L950 850L950 650L900 650L900 600L950 600L950 50L900 50L900 100L850 100L850 150L800 150L800 200L750 200L750 700L850 700L850 800L750 800L750 1300L500 1300L500 1500M0 1450L50 1450L50 1500L450 1500L450 1300L200 1300L200 800L100 800L100 850L50 850L50 900L0 900L0 1450M850 650L900 650L900 700L850 700L850 650M50 1400L100 1400L100 1450L50 1450L50 1400M100 1350L150 1350L150 1400L100 1400L100 1350M150 1300L200 1300L200 1350L150 1350L150 1300M750 1300L800 1300L800 1350L750 1350L750 1300M800 1350L850 1350L850 1400L800 1400L800 1350M850 800L900 800L900 850L850 850L850 800M850 1400L900 1400L900 1450L850 1450L850 1400Z"  horiz-adv-x="1150" vert-adv-y="1000"  />

      
      <glyph glyph-name="uni38" unicode="&#x38;" d="M0 1450L50 1450L50 1500L450 1500L450 1300L200 1300L200 800L250 800L250 850L700 850L700 800L750 800L750 1300L500 1300L500 1500L900 1500L900 1450L950 1450L950 900L900 900L900 850L850 850L850 800L750 800L750 700L850 700L850 650L900 650L900 600L950 600L950 50L900 50L900 0L500 0L500 200L750 200L750 700L700 700L700 650L250 650L250 700L200 700L200 200L450 200L450 0L50 0L50 50L0 50L0 600L50 600L50 650L100 650L100 700L200 700L200 800L100 800L100 850L50 850L50 900L0 900L0 1450M750 150L800 150L800 200L750 200L750 150M750 1300L800 1300L800 1350L750 1350L750 1300M800 100L850 100L850 150L800 150L800 100M800 1350L850 1350L850 1400L800 1400L800 1350M850 50L900 50L900 100L850 100L850 50M850 1400L900 1400L900 1450L850 1450L850 1400M50 50L100 50L100 100L50 100L50 50M50 1400L100 1400L100 1450L50 1450L50 1400M100 100L150 100L150 150L100 150L100 100M150 1300L200 1300L200 1350L150 1350L150 1300M100 1350L150 1350L150 1400L100 1400L100 1350M150 150L200 150L200 200L150 200L150 150Z"  horiz-adv-x="1150" vert-adv-y="1000"  />

      
      <glyph glyph-name="uni39" unicode="&#x39;" d="M0 1450L50 1450L50 1500L450 1500L450 1300L200 1300L200 800L250 800L250 850L700 850L700 800L750 800L750 1300L500 1300L500 1500L900 1500L900 1450L950 1450L950 900L900 900L900 850L950 850L950 650L900 650L900 600L950 600L950 50L900 50L900 0L500 0L500 200L750 200L750 700L700 700L700 650L250 650L250 700L200 700L200 800L100 800L100 850L50 850L50 900L0 900L0 1450M50 50L100 50L100 100L150 100L150 150L200 150L200 200L450 200L450 0L50 0L50 50M850 800L750 800L750 700L850 700L850 800M850 1400L900 1400L900 1450L850 1450L850 1400M50 1400L100 1400L100 1450L50 1450L50 1400M100 1350L150 1350L150 1400L100 1400L100 1350M150 1300L200 1300L200 1350L150 1350L150 1300M750 150L800 150L800 200L750 200L750 150M750 1300L800 1300L800 1350L750 1350L750 1300M800 100L850 100L850 150L800 150L800 100M800 1350L850 1350L850 1400L800 1400L800 1350M850 50L900 50L900 100L850 100L850 50M850 650L900 650L900 700L850 700L850 650M850 800L900 800L900 850L850 850L850 800Z"  horiz-adv-x="1150" vert-adv-y="1000"  />

      
      <glyph glyph-name="uni3a" unicode="&#x3a;" d="M350 1150L550 1150L550 950L350 950L350 1150M350 550L550 550L550 350L350 350L350 550Z"  horiz-adv-x="1150" vert-adv-y="1000"  />

      
      <glyph glyph-name="uni3b" unicode="&#x3b;" d="M350 200L550 200L550 150L600 150L600 100L650 100L650 50L700 50L700 0L350 0L350 200M350 1150L550 1150L550 950L350 950L350 1150Z"  horiz-adv-x="1150" vert-adv-y="1000"  />

      
      <glyph glyph-name="uni3c" unicode="&#x3c;" d="M0 800L50 800L50 850L100 850L100 900L150 900L150 950L200 950L200 1000L250 1000L250 950L300 950L300 900L350 900L350 850L300 850L300 800L250 800L250 750L200 750L200 700L150 700L150 650L200 650L200 600L250 600L250 550L300 550L300 500L350 500L350 450L300 450L300 400L250 400L250 350L200 350L200 400L150 400L150 450L100 450L100 500L50 500L50 550L0 550L0 800M50 750L100 750L100 800L50 800L50 750M100 700L150 700L150 750L100 750L100 700Z"  horiz-adv-x="1150" vert-adv-y="1000"  />

      
      <glyph glyph-name="uni3d" unicode="&#x3d;" d="M200 1000L250 1000L250 1050L700 1050L700 1000L750 1000L750 900L700 900L700 850L250 850L250 900L200 900L200 1000M200 600L250 600L250 650L700 650L700 600L750 600L750 500L700 500L700 450L250 450L250 500L200 500L200 600Z"  horiz-adv-x="1150" vert-adv-y="1000"  />

      
      <glyph glyph-name="uni3e" unicode="&#x3e;" d="M400 900L450 900L450 950L500 950L500 1000L550 1000L550 950L600 950L600 900L650 900L650 850L700 850L700 800L750 800L750 550L700 550L700 500L650 500L650 450L600 450L600 400L550 400L550 350L500 350L500 400L450 400L450 450L400 450L400 500L450 500L450 550L500 550L500 600L550 600L550 650L600 650L600 700L550 700L550 750L500 750L500 800L450 800L450 850L400 850L400 900M600 700L650 700L650 750L600 750L600 700M650 750L700 750L700 800L650 800L650 750Z"  horiz-adv-x="1150" vert-adv-y="1000"  />

      
      <glyph glyph-name="uni3f" unicode="&#x3f;" d="M500 1500L900 1500L900 1450L950 1450L950 900L900 900L900 850L850 850L850 800L750 800L750 700L700 700L700 650L300 650L300 700L250 700L250 800L300 800L300 850L700 850L700 800L750 800L750 1300L500 1300L500 1500M50 1500L450 1500L450 1300L200 1300L200 1350L150 1350L150 1400L100 1400L100 1450L50 1450L50 1500M250 550L300 550L300 600L400 600L400 550L450 550L450 300L400 300L400 250L300 250L300 300L250 300L250 550M250 200L450 200L450 0L250 0L250 200M750 1300L800 1300L800 1350L750 1350L750 1300M800 1350L850 1350L850 1400L800 1400L800 1350M850 1400L900 1400L900 1450L850 1450L850 1400Z"  horiz-adv-x="1150" vert-adv-y="1000"  />

      
      <glyph glyph-name="uni40" unicode="&#x40;" d="M0 1450L50 1450L50 1500L450 1500L450 1300L200 1300L200 800L100 800L100 700L200 700L200 200L450 200L450 0L50 0L50 50L0 50L0 600L50 600L50 650L0 650L0 850L50 850L50 900L0 900L0 1450M500 1500L900 1500L900 1450L950 1450L950 900L900 900L900 850L950 850L950 650L900 650L900 600L950 600L950 400L900 400L900 350L850 350L850 300L800 300L800 250L750 250L750 700L850 700L850 800L750 800L750 1300L500 1300L500 1500M250 600L450 600L450 450L400 450L400 400L450 400L450 250L300 250L300 300L250 300L250 600M250 1200L300 1200L300 1250L450 1250L450 1100L400 1100L400 1050L450 1050L450 900L250 900L250 1200M500 200L750 200L750 150L800 150L800 100L850 100L850 50L900 50L900 0L500 0L500 200M500 450L700 450L700 250L500 250L500 450M500 1250L700 1250L700 1050L500 1050L500 1250M250 850L450 850L450 650L250 650L250 850M100 1350L150 1350L150 1400L100 1400L100 1350M150 150L200 150L200 200L150 200L150 150M150 1300L200 1300L200 1350L150 1350L150 1300M300 300L350 300L350 350L300 350L300 300M300 1150L350 1150L350 1200L300 1200L300 1150M350 350L400 350L400 400L350 400L350 350M350 1100L400 1100L400 1150L350 1150L350 1100M750 1300L800 1300L800 1350L750 1350L750 1300M800 1350L850 1350L850 1400L800 1400L800 1350M850 650L900 650L900 700L850 700L850 650M850 800L900 800L900 850L850 850L850 800M850 1400L900 1400L900 1450L850 1450L850 1400M50 50L100 50L100 100L50 100L50 50M50 650L100 650L100 700L50 700L50 650M50 800L100 800L100 850L50 850L50 800M50 1400L100 1400L100 1450L50 1450L50 1400M100 100L150 100L150 150L100 150L100 100Z"  horiz-adv-x="1150" vert-adv-y="1000"  />

      
      <glyph glyph-name="uni41" unicode="&#x41;" d="M0 1450L50 1450L50 1500L450 1500L450 1300L200 1300L200 800L250 800L250 850L700 850L700 800L750 800L750 1300L500 1300L500 1500L900 1500L900 1450L950 1450L950 900L900 900L900 850L950 850L950 650L900 650L900 600L950 600L950 50L900 50L900 100L850 100L850 150L800 150L800 200L750 200L750 700L700 700L700 650L250 650L250 700L200 700L200 200L150 200L150 150L100 150L100 100L50 100L50 50L0 50L0 600L50 600L50 650L0 650L0 850L50 850L50 900L0 900L0 1450M100 700L200 700L200 800L100 800L100 700M750 700L850 700L850 800L750 800L750 700M850 1400L900 1400L900 1450L850 1450L850 1400M850 650L900 650L900 700L850 700L850 650M50 650L100 650L100 700L50 700L50 650M50 800L100 800L100 850L50 850L50 800M50 1400L100 1400L100 1450L50 1450L50 1400M100 1350L150 1350L150 1400L100 1400L100 1350M150 1300L200 1300L200 1350L150 1350L150 1300M750 1300L800 1300L800 1350L750 1350L750 1300M800 1350L850 1350L850 1400L800 1400L800 1350M850 800L900 800L900 850L850 850L850 800Z"  horiz-adv-x="1150" vert-adv-y="1000"  />

      
      <glyph glyph-name="uni42" unicode="&#x42;" d="M0 1450L50 1450L50 1500L450 1500L450 1300L200 1300L200 800L250 800L250 850L700 850L700 800L750 800L750 1300L500 1300L500 1500L900 1500L900 1450L950 1450L950 900L900 900L900 850L850 850L850 800L750 800L750 700L850 700L850 650L900 650L900 600L950 600L950 50L900 50L900 0L500 0L500 200L750 200L750 700L700 700L700 650L250 650L250 700L200 700L200 200L450 200L450 0L50 0L50 50L0 50L0 600L50 600L50 650L0 650L0 850L50 850L50 900L0 900L0 1450M100 700L200 700L200 800L100 800L100 700M800 1350L850 1350L850 1400L800 1400L800 1350M750 150L800 150L800 200L750 200L750 150M750 1300L800 1300L800 1350L750 1350L750 1300M800 100L850 100L850 150L800 150L800 100M850 50L900 50L900 100L850 100L850 50M850 1400L900 1400L900 1450L850 1450L850 1400M50 50L100 50L100 100L50 100L50 50M50 650L100 650L100 700L50 700L50 650M50 800L100 800L100 850L50 850L50 800M50 1400L100 1400L100 1450L50 1450L50 1400M100 100L150 100L150 150L100 150L100 100M100 1350L150 1350L150 1400L100 1400L100 1350M150 150L200 150L200 200L150 200L150 150M150 1300L200 1300L200 1350L150 1350L150 1300Z"  horiz-adv-x="1150" vert-adv-y="1000"  />

      
      <glyph glyph-name="uni43" unicode="&#x43;" d="M0 1450L50 1450L50 1500L450 1500L450 1300L200 1300L200 800L100 800L100 700L200 700L200 200L450 200L450 0L50 0L50 50L0 50L0 600L50 600L50 650L0 650L0 850L50 850L50 900L0 900L0 1450M500 1500L900 1500L900 1450L850 1450L850 1400L800 1400L800 1350L750 1350L750 1300L500 1300L500 1500M500 200L750 200L750 150L800 150L800 100L850 100L850 50L900 50L900 0L500 0L500 200M50 50L100 50L100 100L50 100L50 50M50 650L100 650L100 700L50 700L50 650M50 800L100 800L100 850L50 850L50 800M50 1400L100 1400L100 1450L50 1450L50 1400M100 100L150 100L150 150L100 150L100 100M150 150L200 150L200 200L150 200L150 150M100 1350L150 1350L150 1400L100 1400L100 1350M150 1300L200 1300L200 1350L150 1350L150 1300Z"  horiz-adv-x="1150" vert-adv-y="1000"  />

      
      <glyph glyph-name="uni44" unicode="&#x44;" d="M0 1450L50 1450L50 1500L450 1500L450 1300L200 1300L200 800L100 800L100 700L200 700L200 200L450 200L450 0L50 0L50 50L0 50L0 600L50 600L50 650L0 650L0 850L50 850L50 900L0 900L0 1450M500 1500L900 1500L900 1450L950 1450L950 900L900 900L900 850L850 850L850 800L750 800L750 1300L500 1300L500 1500M500 200L750 200L750 700L850 700L850 650L900 650L900 600L950 600L950 50L900 50L900 0L500 0L500 200M850 1400L900 1400L900 1450L850 1450L850 1400M50 50L100 50L100 100L50 100L50 50M50 650L100 650L100 700L50 700L50 650M50 800L100 800L100 850L50 850L50 800M50 1400L100 1400L100 1450L50 1450L50 1400M100 100L150 100L150 150L100 150L100 100M100 1350L150 1350L150 1400L100 1400L100 1350M150 150L200 150L200 200L150 200L150 150M150 1300L200 1300L200 1350L150 1350L150 1300M750 150L800 150L800 200L750 200L750 150M750 1300L800 1300L800 1350L750 1350L750 1300M800 100L850 100L850 150L800 150L800 100M800 1350L850 1350L850 1400L800 1400L800 1350M850 50L900 50L900 100L850 100L850 50Z"  horiz-adv-x="1150" vert-adv-y="1000"  />

      
      <glyph glyph-name="uni45" unicode="&#x45;" d="M0 1450L50 1450L50 1500L450 1500L450 1300L200 1300L200 800L250 800L250 850L700 850L700 800L750 800L750 700L700 700L700 650L250 650L250 700L200 700L200 200L450 200L450 0L50 0L50 50L0 50L0 600L50 600L50 650L0 650L0 850L50 850L50 900L0 900L0 1450M500 1500L900 1500L900 1450L850 1450L850 1400L800 1400L800 1350L750 1350L750 1300L500 1300L500 1500M500 200L750 200L750 150L800 150L800 100L850 100L850 50L900 50L900 0L500 0L500 200M200 800L200 700L100 700L100 800L200 800M50 50L100 50L100 100L50 100L50 50M50 650L100 650L100 700L50 700L50 650M50 800L100 800L100 850L50 850L50 800M50 1400L100 1400L100 1450L50 1450L50 1400M100 100L150 100L150 150L100 150L100 100M100 1350L150 1350L150 1400L100 1400L100 1350M150 150L200 150L200 200L150 200L150 150M150 1300L200 1300L200 1350L150 1350L150 1300Z"  horiz-adv-x="1150" vert-adv-y="1000"  />

      
      <glyph glyph-name="uni46" unicode="&#x46;" d="M0 1450L50 1450L50 1500L450 1500L450 1300L200 1300L200 800L250 800L250 850L700 850L700 800L750 800L750 700L700 700L700 650L250 650L250 700L200 700L200 200L150 200L150 150L100 150L100 100L50 100L50 50L0 50L0 600L50 600L50 650L0 650L0 850L50 850L50 900L0 900L0 1450M500 1500L900 1500L900 1450L850 1450L850 1400L800 1400L800 1350L750 1350L750 1300L500 1300L500 1500M100 700L200 700L200 800L100 800L100 700M50 650L100 650L100 700L50 700L50 650M50 800L100 800L100 850L50 850L50 800M50 1400L100 1400L100 1450L50 1450L50 1400M100 1350L150 1350L150 1400L100 1400L100 1350M150 1300L200 1300L200 1350L150 1350L150 1300Z"  horiz-adv-x="1150" vert-adv-y="1000"  />

      
      <glyph glyph-name="uni47" unicode="&#x47;" d="M0 1450L50 1450L50 1500L450 1500L450 1300L200 1300L200 800L100 800L100 700L200 700L200 200L450 200L450 0L50 0L50 50L0 50L0 600L50 600L50 650L0 650L0 850L50 850L50 900L0 900L0 1450M500 200L750 200L750 700L850 700L850 650L900 650L900 600L950 600L950 50L900 50L900 0L500 0L500 200M500 1500L900 1500L900 1450L850 1450L850 1400L800 1400L800 1350L750 1350L750 1300L500 1300L500 1500M50 50L100 50L100 100L50 100L50 50M50 650L100 650L100 700L50 700L50 650M50 800L100 800L100 850L50 850L50 800M50 1400L100 1400L100 1450L50 1450L50 1400M100 100L150 100L150 150L100 150L100 100M100 1350L150 1350L150 1400L100 1400L100 1350M150 150L200 150L200 200L150 200L150 150M150 1300L200 1300L200 1350L150 1350L150 1300M750 150L800 150L800 200L750 200L750 150M800 100L850 100L850 150L800 150L800 100M850 50L900 50L900 100L850 100L850 50Z"  horiz-adv-x="1150" vert-adv-y="1000"  />

      
      <glyph glyph-name="uni48" unicode="&#x48;" d="M0 1450L50 1450L50 1400L100 1400L100 1350L150 1350L150 1300L200 1300L200 800L250 800L250 850L700 850L700 800L750 800L750 1300L800 1300L800 1350L850 1350L850 1400L900 1400L900 1450L950 1450L950 900L900 900L900 850L950 850L950 650L900 650L900 600L950 600L950 50L900 50L900 100L850 100L850 150L800 150L800 200L750 200L750 700L700 700L700 650L250 650L250 700L200 700L200 200L150 200L150 150L100 150L100 100L50 100L50 50L0 50L0 600L50 600L50 650L0 650L0 850L50 850L50 900L0 900L0 1450M100 700L200 700L200 800L100 800L100 700M750 700L850 700L850 800L750 800L750 700M50 650L100 650L100 700L50 700L50 650M50 800L100 800L100 850L50 850L50 800M850 650L900 650L900 700L850 700L850 650M850 800L900 800L900 850L850 850L850 800Z"  horiz-adv-x="1150" vert-adv-y="1000"  />

      
      <glyph glyph-name="uni49" unicode="&#x49;" d="M750 1300L800 1300L800 1350L850 1350L850 1400L900 1400L900 1450L950 1450L950 900L900 900L900 850L950 850L950 650L900 650L900 600L950 600L950 50L900 50L900 100L850 100L850 150L800 150L800 200L750 200L750 700L850 700L850 800L750 800L750 1300M850 800L900 800L900 850L850 850L850 800M850 650L900 650L900 700L850 700L850 650Z"  horiz-adv-x="1150" vert-adv-y="1000"  />

      
      <glyph glyph-name="uni4a" unicode="&#x4a;" d="M500 1500L900 1500L900 1450L950 1450L950 900L900 900L900 850L950 850L950 650L900 650L900 600L950 600L950 50L900 50L900 0L500 0L500 200L750 200L750 700L850 700L850 800L750 800L750 1300L500 1300L500 1500M0 600L50 600L50 650L100 650L100 700L200 700L200 200L450 200L450 0L50 0L50 50L0 50L0 600M50 1500L450 1500L450 1300L200 1300L200 1350L150 1350L150 1400L100 1400L100 1450L50 1450L50 1500M50 50L100 50L100 100L50 100L50 50M850 650L900 650L900 700L850 700L850 650M100 100L150 100L150 150L100 150L100 100M150 150L200 150L200 200L150 200L150 150M750 150L800 150L800 200L750 200L750 150M750 1300L800 1300L800 1350L750 1350L750 1300M800 100L850 100L850 150L800 150L800 100M800 1350L850 1350L850 1400L800 1400L800 1350M850 50L900 50L900 100L850 100L850 50M850 800L900 800L900 850L850 850L850 800M850 1400L900 1400L900 1450L850 1450L850 1400Z"  horiz-adv-x="1150" vert-adv-y="1000"  />

      
      <glyph glyph-name="uni4b" unicode="&#x4b;" d="M0 1450L50 1450L50 1400L100 1400L100 1350L150 1350L150 1300L200 1300L200 800L250 800L250 850L700 850L700 800L750 800L750 1300L800 1300L800 1350L850 1350L850 1400L900 1400L900 1450L950 1450L950 900L900 900L900 850L850 850L850 800L750 800L750 700L850 700L850 650L900 650L900 600L950 600L950 50L900 50L900 100L850 100L850 150L800 150L800 200L750 200L750 700L700 700L700 650L250 650L250 700L200 700L200 200L150 200L150 150L100 150L100 100L50 100L50 50L0 50L0 600L50 600L50 650L0 650L0 850L50 850L50 900L0 900L0 1450M200 800L200 700L100 700L100 800L200 800M50 650L100 650L100 700L50 700L50 650M50 800L100 800L100 850L50 850L50 800Z"  horiz-adv-x="1150" vert-adv-y="1000"  />

      
      <glyph glyph-name="uni4c" unicode="&#x4c;" d="M0 1450L50 1450L50 1400L100 1400L100 1350L150 1350L150 1300L200 1300L200 800L100 800L100 700L200 700L200 200L450 200L450 0L50 0L50 50L0 50L0 600L50 600L50 650L0 650L0 850L50 850L50 900L0 900L0 1450M500 200L750 200L750 700L850 700L850 650L900 650L900 600L950 600L950 50L900 50L900 0L500 0L500 200M50 50L100 50L100 100L50 100L50 50M50 650L100 650L100 700L50 700L50 650M50 800L100 800L100 850L50 850L50 800M100 100L150 100L150 150L100 150L100 100M150 150L200 150L200 200L150 200L150 150M750 150L800 150L800 200L750 200L750 150M800 100L850 100L850 150L800 150L800 100M850 50L900 50L900 100L850 100L850 50Z"  horiz-adv-x="1150" vert-adv-y="1000"  />

      
      <glyph glyph-name="uni4d" unicode="&#x4d;" d="M0 1450L50 1450L50 1500L450 1500L450 1300L500 1300L500 1500L900 1500L900 1450L950 1450L950 900L900 900L900 850L950 850L950 650L900 650L900 600L950 600L950 50L900 50L900 100L850 100L850 150L800 150L800 200L750 200L750 700L850 700L850 800L750 800L750 1300L500 1300L500 1250L550 1250L550 950L500 950L500 900L450 900L450 950L400 950L400 1250L450 1250L450 1300L200 1300L200 800L100 800L100 700L200 700L200 200L150 200L150 150L100 150L100 100L50 100L50 50L0 50L0 600L50 600L50 650L0 650L0 850L50 850L50 900L0 900L0 1450M850 800L900 800L900 850L850 850L850 800M50 650L100 650L100 700L50 700L50 650M50 800L100 800L100 850L50 850L50 800M50 1400L100 1400L100 1450L50 1450L50 1400M100 1350L150 1350L150 1400L100 1400L100 1350M150 1300L200 1300L200 1350L150 1350L150 1300M750 1300L800 1300L800 1350L750 1350L750 1300M800 1350L850 1350L850 1400L800 1400L800 1350M850 650L900 650L900 700L850 700L850 650M850 1400L900 1400L900 1450L850 1450L850 1400Z"  horiz-adv-x="1150" vert-adv-y="1000"  />

      
      <glyph glyph-name="uni4e" unicode="&#x4e;" d="M0 1450L50 1450L50 1400L100 1400L100 1350L150 1350L150 1300L200 1300L200 800L100 800L100 700L200 700L200 200L150 200L150 150L100 150L100 100L50 100L50 50L0 50L0 600L50 600L50 650L0 650L0 850L50 850L50 900L0 900L0 1450M750 1300L800 1300L800 1350L850 1350L850 1400L900 1400L900 1450L950 1450L950 900L900 900L900 850L950 850L950 650L900 650L900 600L950 600L950 50L900 50L900 100L850 100L850 150L800 150L800 200L750 200L750 700L850 700L850 800L750 800L750 1300M250 1200L300 1200L300 1150L350 1150L350 1100L400 1100L400 1050L450 1050L450 1000L500 1000L500 950L550 950L550 900L600 900L600 850L650 850L650 800L700 800L700 550L650 550L650 600L600 600L600 650L550 650L550 700L500 700L500 750L450 750L450 800L400 800L400 850L350 850L350 900L300 900L300 950L250 950L250 1200M50 650L100 650L100 700L50 700L50 650M50 800L100 800L100 850L50 850L50 800M850 650L900 650L900 700L850 700L850 650M850 800L900 800L900 850L850 850L850 800Z"  horiz-adv-x="1150" vert-adv-y="1000"  />

      
      <glyph glyph-name="uni4f" unicode="&#x4f;" d="M0 1450L50 1450L50 1500L450 1500L450 1300L200 1300L200 800L100 800L100 850L50 850L50 900L0 900L0 1450M0 600L50 600L50 650L100 650L100 700L200 700L200 200L450 200L450 0L50 0L50 50L0 50L0 600M500 200L750 200L750 700L850 700L850 650L900 650L900 600L950 600L950 50L900 50L900 0L500 0L500 200M500 1500L900 1500L900 1450L950 1450L950 900L900 900L900 850L850 850L850 800L750 800L750 1300L500 1300L500 1500M850 1400L900 1400L900 1450L850 1450L850 1400M50 50L100 50L100 100L50 100L50 50M50 1400L100 1400L100 1450L50 1450L50 1400M100 100L150 100L150 150L100 150L100 100M100 1350L150 1350L150 1400L100 1400L100 1350M150 150L200 150L200 200L150 200L150 150M150 1300L200 1300L200 1350L150 1350L150 1300M750 150L800 150L800 200L750 200L750 150M750 1300L800 1300L800 1350L750 1350L750 1300M800 100L850 100L850 150L800 150L800 100M800 1350L850 1350L850 1400L800 1400L800 1350M850 50L900 50L900 100L850 100L850 50Z"  horiz-adv-x="1150" vert-adv-y="1000"  />

      
      <glyph glyph-name="uni50" unicode="&#x50;" d="M0 1450L50 1450L50 1500L450 1500L450 1300L200 1300L200 800L250 800L250 850L700 850L700 800L750 800L750 1300L500 1300L500 1500L900 1500L900 1450L950 1450L950 900L900 900L900 850L850 850L850 800L750 800L750 700L700 700L700 650L250 650L250 700L200 700L200 200L150 200L150 150L100 150L100 100L50 100L50 50L0 50L0 600L50 600L50 650L0 650L0 850L50 850L50 900L0 900L0 1450M100 700L200 700L200 800L100 800L100 700M50 650L100 650L100 700L50 700L50 650M50 800L100 800L100 850L50 850L50 800M50 1400L100 1400L100 1450L50 1450L50 1400M100 1350L150 1350L150 1400L100 1400L100 1350M150 1300L200 1300L200 1350L150 1350L150 1300M750 1300L800 1300L800 1350L750 1350L750 1300M800 1350L850 1350L850 1400L800 1400L800 1350M850 1400L900 1400L900 1450L850 1450L850 1400Z"  horiz-adv-x="1150" vert-adv-y="1000"  />

      
      <glyph glyph-name="uni51" unicode="&#x51;" d="M0 1450L50 1450L50 1500L450 1500L450 1300L200 1300L200 800L100 800L100 850L50 850L50 900L0 900L0 1450M500 1500L900 1500L900 1450L950 1450L950 900L900 900L900 850L850 850L850 800L750 800L750 1300L500 1300L500 1500M0 600L50 600L50 650L100 650L100 700L200 700L200 200L450 200L450 0L50 0L50 50L0 50L0 600M500 200L750 200L750 700L850 700L850 650L900 650L900 600L950 600L950 50L900 50L900 0L500 0L500 200M500 400L550 400L550 450L700 450L700 250L500 250L500 400M800 1350L850 1350L850 1400L800 1400L800 1350M850 50L900 50L900 100L850 100L850 50M850 1400L900 1400L900 1450L850 1450L850 1400M50 50L100 50L100 100L50 100L50 50M50 1400L100 1400L100 1450L50 1450L50 1400M100 100L150 100L150 150L100 150L100 100M100 1350L150 1350L150 1400L100 1400L100 1350M150 150L200 150L200 200L150 200L150 150M150 1300L200 1300L200 1350L150 1350L150 1300M750 150L800 150L800 200L750 200L750 150M750 1300L800 1300L800 1350L750 1350L750 1300M800 100L850 100L850 150L800 150L800 100Z"  horiz-adv-x="1150" vert-adv-y="1000"  />

      
      <glyph glyph-name="uni52" unicode="&#x52;" d="M0 1450L50 1450L50 1500L450 1500L450 1300L200 1300L200 800L250 800L250 850L700 850L700 800L750 800L750 1300L500 1300L500 1500L900 1500L900 1450L950 1450L950 900L900 900L900 850L850 850L850 800L750 800L750 700L850 700L850 650L900 650L900 600L950 600L950 50L900 50L900 100L850 100L850 150L800 150L800 200L750 200L750 700L700 700L700 650L250 650L250 700L200 700L200 200L150 200L150 150L100 150L100 100L50 100L50 50L0 50L0 600L50 600L50 650L0 650L0 850L50 850L50 900L0 900L0 1450M100 700L200 700L200 800L100 800L100 700M50 650L100 650L100 700L50 700L50 650M50 800L100 800L100 850L50 850L50 800M800 1350L850 1350L850 1400L800 1400L800 1350M50 1400L100 1400L100 1450L50 1450L50 1400M750 1300L800 1300L800 1350L750 1350L750 1300M100 1350L150 1350L150 1400L100 1400L100 1350M150 1300L200 1300L200 1350L150 1350L150 1300M850 1400L900 1400L900 1450L850 1450L850 1400Z"  horiz-adv-x="1150" vert-adv-y="1000"  />

      
      <glyph glyph-name="uni53" unicode="&#x53;" d="M0 1450L50 1450L50 1500L450 1500L450 1300L200 1300L200 800L250 800L250 850L700 850L700 800L750 800L750 700L850 700L850 650L900 650L900 600L950 600L950 50L900 50L900 0L500 0L500 200L750 200L750 700L700 700L700 650L250 650L250 700L200 700L200 800L100 800L100 850L50 850L50 900L0 900L0 1450M500 1500L900 1500L900 1450L850 1450L850 1400L800 1400L800 1350L750 1350L750 1300L500 1300L500 1500M50 50L100 50L100 100L150 100L150 150L200 150L200 200L450 200L450 0L50 0L50 50M50 1400L100 1400L100 1450L50 1450L50 1400M100 1350L150 1350L150 1400L100 1400L100 1350M150 1300L200 1300L200 1350L150 1350L150 1300M750 150L800 150L800 200L750 200L750 150M800 100L850 100L850 150L800 150L800 100M850 50L900 50L900 100L850 100L850 50Z"  horiz-adv-x="1150" vert-adv-y="1000"  />

      
      <glyph glyph-name="uni54" unicode="&#x54;" d="M0 1500L500 1500L500 1450L550 1450L550 1500L950 1500L950 1450L900 1450L900 1400L850 1400L850 1350L800 1350L800 1300L600 1300L600 1450L550 1450L550 900L500 900L500 850L550 850L550 650L500 650L500 600L550 600L550 50L500 50L500 100L450 100L450 150L400 150L400 200L350 200L350 700L450 700L450 800L350 800L350 1300L150 1300L150 1350L100 1350L100 1400L50 1400L50 1450L0 1450L0 1500M350 1300L400 1300L400 1350L350 1350L350 1300M450 650L500 650L500 700L450 700L450 650M400 1350L450 1350L450 1400L400 1400L400 1350M450 800L500 800L500 850L450 850L450 800M450 1400L500 1400L500 1450L450 1450L450 1400Z"  horiz-adv-x="1150" vert-adv-y="1000"  />

      
      <glyph glyph-name="uni55" unicode="&#x55;" d="M0 1450L50 1450L50 1400L100 1400L100 1350L150 1350L150 1300L200 1300L200 800L100 800L100 700L200 700L200 200L450 200L450 0L50 0L50 50L0 50L0 600L50 600L50 650L0 650L0 850L50 850L50 900L0 900L0 1450M750 1300L800 1300L800 1350L850 1350L850 1400L900 1400L900 1450L950 1450L950 900L900 900L900 850L950 850L950 650L900 650L900 600L950 600L950 50L900 50L900 0L500 0L500 200L750 200L750 700L850 700L850 800L750 800L750 1300M50 50L100 50L100 100L50 100L50 50M850 800L900 800L900 850L850 850L850 800M50 650L100 650L100 700L50 700L50 650M50 800L100 800L100 850L50 850L50 800M100 100L150 100L150 150L100 150L100 100M150 150L200 150L200 200L150 200L150 150M750 150L800 150L800 200L750 200L750 150M800 100L850 100L850 150L800 150L800 100M850 50L900 50L900 100L850 100L850 50M850 650L900 650L900 700L850 700L850 650Z"  horiz-adv-x="1150" vert-adv-y="1000"  />

      
      <glyph glyph-name="uni56" unicode="&#x56;" d="M0 1450L50 1450L50 1400L100 1400L100 1350L150 1350L150 1300L200 1300L200 800L100 800L100 700L200 700L200 200L450 200L450 0L350 0L350 50L300 50L300 100L250 100L250 150L200 150L200 200L150 200L150 250L100 250L100 300L50 300L50 350L0 350L0 600L50 600L50 650L0 650L0 850L50 850L50 900L0 900L0 1450M750 1300L800 1300L800 1350L850 1350L850 1400L900 1400L900 1450L950 1450L950 900L900 900L900 850L950 850L950 650L900 650L900 600L950 600L950 350L900 350L900 300L850 300L850 250L800 250L800 200L750 200L750 150L700 150L700 100L650 100L650 50L600 50L600 0L500 0L500 200L750 200L750 700L850 700L850 800L750 800L750 1300M850 650L900 650L900 700L850 700L850 650M850 800L900 800L900 850L850 850L850 800M50 650L100 650L100 700L50 700L50 650M50 800L100 800L100 850L50 850L50 800Z"  horiz-adv-x="1150" vert-adv-y="1000"  />

      
      <glyph glyph-name="uni57" unicode="&#x57;" d="M0 1450L50 1450L50 1400L100 1400L100 1350L150 1350L150 1300L200 1300L200 800L100 800L100 700L200 700L200 200L450 200L450 250L400 250L400 550L450 550L450 600L500 600L500 550L550 550L550 250L500 250L500 200L750 200L750 700L850 700L850 800L750 800L750 1300L800 1300L800 1350L850 1350L850 1400L900 1400L900 1450L950 1450L950 900L900 900L900 850L950 850L950 650L900 650L900 600L950 600L950 50L900 50L900 0L500 0L500 200L450 200L450 0L50 0L50 50L0 50L0 600L50 600L50 650L0 650L0 850L50 850L50 900L0 900L0 1450M50 50L100 50L100 100L50 100L50 50M50 650L100 650L100 700L50 700L50 650M50 800L100 800L100 850L50 850L50 800M100 100L150 100L150 150L100 150L100 100M150 150L200 150L200 200L150 200L150 150M750 150L800 150L800 200L750 200L750 150M800 100L850 100L850 150L800 150L800 100M850 50L900 50L900 100L850 100L850 50M850 650L900 650L900 700L850 700L850 650M850 800L900 800L900 850L850 850L850 800Z"  horiz-adv-x="1150" vert-adv-y="1000"  />

      
      <glyph glyph-name="uni58" unicode="&#x58;" d="M0 1450L50 1450L50 1400L100 1400L100 1350L150 1350L150 1300L200 1300L200 800L250 800L250 850L700 850L700 800L750 800L750 1300L800 1300L800 1350L850 1350L850 1400L900 1400L900 1450L950 1450L950 900L900 900L900 850L850 850L850 800L750 800L750 700L850 700L850 650L900 650L900 600L950 600L950 50L900 50L900 100L850 100L850 150L800 150L800 200L750 200L750 700L700 700L700 650L250 650L250 700L200 700L200 200L150 200L150 150L100 150L100 100L50 100L50 50L0 50L0 600L50 600L50 650L100 650L100 700L200 700L200 800L100 800L100 850L50 850L50 900L0 900L0 1450Z"  horiz-adv-x="1150" vert-adv-y="1000"  />

      
      <glyph glyph-name="uni59" unicode="&#x59;" d="M0 1450L50 1450L50 1400L100 1400L100 1350L150 1350L150 1300L200 1300L200 800L250 800L250 850L700 850L700 800L750 800L750 1300L800 1300L800 1350L850 1350L850 1400L900 1400L900 1450L950 1450L950 900L900 900L900 850L950 850L950 650L900 650L900 600L950 600L950 50L900 50L900 0L500 0L500 200L750 200L750 700L700 700L700 650L250 650L250 700L200 700L200 800L100 800L100 850L50 850L50 900L0 900L0 1450M50 50L100 50L100 100L150 100L150 150L200 150L200 200L450 200L450 0L50 0L50 50M750 800L750 700L850 700L850 800L750 800M850 650L900 650L900 700L850 700L850 650M750 150L800 150L800 200L750 200L750 150M800 100L850 100L850 150L800 150L800 100M850 50L900 50L900 100L850 100L850 50M850 800L900 800L900 850L850 850L850 800Z"  horiz-adv-x="1150" vert-adv-y="1000"  />

      
      <glyph glyph-name="uni5a" unicode="&#x5a;" d="M500 1500L900 1500L900 1450L950 1450L950 900L900 900L900 850L850 850L850 800L750 800L750 700L700 700L700 650L250 650L250 700L200 700L200 200L450 200L450 0L50 0L50 50L0 50L0 600L50 600L50 650L100 650L100 700L200 700L200 800L250 800L250 850L700 850L700 800L750 800L750 1300L500 1300L500 1500M0 1450L50 1450L50 1500L450 1500L450 1300L200 1300L200 1350L150 1350L150 1300L0 1300L0 1450M500 200L750 200L750 150L800 150L800 200L950 200L950 50L900 50L900 0L500 0L500 200M50 50L100 50L100 100L50 100L50 50M50 1400L100 1400L100 1450L50 1450L50 1400M100 100L150 100L150 150L100 150L100 100M100 1350L150 1350L150 1400L100 1400L100 1350M150 150L200 150L200 200L150 200L150 150M750 1300L800 1300L800 1350L750 1350L750 1300M800 100L850 100L850 150L800 150L800 100M800 1350L850 1350L850 1400L800 1400L800 1350M850 50L900 50L900 100L850 100L850 50M850 1400L900 1400L900 1450L850 1450L850 1400Z"  horiz-adv-x="1150" vert-adv-y="1000"  />

      
      <glyph glyph-name="uni5b" unicode="&#x5b;" d="M0 1450L50 1450L50 1500L450 1500L450 1300L200 1300L200 800L100 800L100 700L200 700L200 200L450 200L450 0L50 0L50 50L0 50L0 600L50 600L50 650L0 650L0 850L50 850L50 900L0 900L0 1450M50 50L100 50L100 100L50 100L50 50M50 650L100 650L100 700L50 700L50 650M50 800L100 800L100 850L50 850L50 800M50 1400L100 1400L100 1450L50 1450L50 1400M100 100L150 100L150 150L100 150L100 100M100 1350L150 1350L150 1400L100 1400L100 1350M150 150L200 150L200 200L150 200L150 150M150 1300L200 1300L200 1350L150 1350L150 1300Z"  horiz-adv-x="1150" vert-adv-y="1000"  />

      
      <glyph glyph-name="uni5c" unicode="&#x5c;" d="M0 1450L50 1450L50 1400L100 1400L100 1350L150 1350L150 1300L200 1300L200 800L250 800L250 850L700 850L700 800L750 800L750 700L850 700L850 650L900 650L900 600L950 600L950 50L900 50L900 100L850 100L850 150L800 150L800 200L750 200L750 700L700 700L700 650L250 650L250 700L200 700L200 800L100 800L100 850L50 850L50 900L0 900L0 1450Z"  horiz-adv-x="1150" vert-adv-y="1000"  />

      
      <glyph glyph-name="uni5d" unicode="&#x5d;" d="M500 1500L900 1500L900 1450L950 1450L950 900L900 900L900 850L950 850L950 650L900 650L900 600L950 600L950 50L900 50L900 0L500 0L500 200L750 200L750 700L850 700L850 800L750 800L750 1300L500 1300L500 1500M850 1400L900 1400L900 1450L850 1450L850 1400M850 650L900 650L900 700L850 700L850 650M750 150L800 150L800 200L750 200L750 150M750 1300L800 1300L800 1350L750 1350L750 1300M800 100L850 100L850 150L800 150L800 100M800 1350L850 1350L850 1400L800 1400L800 1350M850 50L900 50L900 100L850 100L850 50M850 800L900 800L900 850L850 850L850 800Z"  horiz-adv-x="1150" vert-adv-y="1000"  />

      
      <glyph glyph-name="uni5e" unicode="&#x5e;" d="M150 1300L200 1300L200 1350L250 1350L250 1400L300 1400L300 1450L350 1450L350 1500L600 1500L600 1450L650 1450L650 1400L700 1400L700 1350L750 1350L750 1300L800 1300L800 1250L750 1250L750 1200L700 1200L700 1150L650 1150L650 1200L600 1200L600 1250L550 1250L550 1300L500 1300L500 1350L450 1350L450 1300L400 1300L400 1250L350 1250L350 1200L300 1200L300 1150L250 1150L250 1200L200 1200L200 1250L150 1250L150 1300M500 1350L550 1350L550 1400L500 1400L500 1350M550 1400L600 1400L600 1450L550 1450L550 1400Z"  horiz-adv-x="1150" vert-adv-y="1000"  />

      
      <glyph glyph-name="uni5f" unicode="&#x5f;" d="M50 50L100 50L100 100L150 100L150 150L200 150L200 200L450 200L450 0L50 0L50 50M500 200L750 200L750 150L800 150L800 100L850 100L850 50L900 50L900 0L500 0L500 200Z"  horiz-adv-x="1150" vert-adv-y="1000"  />

      
      <glyph glyph-name="uni60" unicode="&#x60;" d="M0 1450L50 1450L50 1400L100 1400L100 1350L150 1350L150 1300L200 1300L200 800L100 800L100 850L50 850L50 900L0 900L0 1450Z"  horiz-adv-x="1150" vert-adv-y="1000"  />

      
      <glyph glyph-name="uni7b" unicode="&#x7b;" d="M0 1450L50 1450L50 1500L450 1500L450 1300L200 1300L200 800L100 800L100 700L200 700L200 200L450 200L450 0L50 0L50 50L0 50L0 600L50 600L50 650L0 650L0 850L50 850L50 900L0 900L0 1450M50 50L100 50L100 100L50 100L50 50M50 650L100 650L100 700L50 700L50 650M50 800L100 800L100 850L50 850L50 800M50 1400L100 1400L100 1450L50 1450L50 1400M100 100L150 100L150 150L100 150L100 100M100 1350L150 1350L150 1400L100 1400L100 1350M150 150L200 150L200 200L150 200L150 150M150 1300L200 1300L200 1350L150 1350L150 1300Z"  horiz-adv-x="1150" vert-adv-y="1000"  />

      
      <glyph glyph-name="uni7c" unicode="&#x7c;" d="M0 1450L50 1450L50 1400L100 1400L100 1350L150 1350L150 1300L200 1300L200 800L100 800L100 700L200 700L200 200L150 200L150 150L100 150L100 100L50 100L50 50L0 50L0 600L50 600L50 650L0 650L0 850L50 850L50 900L0 900L0 1450M50 650L100 650L100 700L50 700L50 650M50 800L100 800L100 850L50 850L50 800Z"  horiz-adv-x="1150" vert-adv-y="1000"  />

      
      <glyph glyph-name="uni7d" unicode="&#x7d;" d="M500 1500L900 1500L900 1450L950 1450L950 900L900 900L900 850L950 850L950 650L900 650L900 600L950 600L950 50L900 50L900 0L500 0L500 200L750 200L750 700L850 700L850 800L750 800L750 1300L500 1300L500 1500M850 1400L900 1400L900 1450L850 1450L850 1400M850 650L900 650L900 700L850 700L850 650M750 150L800 150L800 200L750 200L750 150M750 1300L800 1300L800 1350L750 1350L750 1300M800 100L850 100L850 150L800 150L800 100M800 1350L850 1350L850 1400L800 1400L800 1350M850 50L900 50L900 100L850 100L850 50M850 800L900 800L900 850L850 850L850 800Z"  horiz-adv-x="1150" vert-adv-y="1000"  />

      
      <glyph glyph-name="uni7e" unicode="&#x7e;" d="M-3 1453L47 1453L47 1503L453 1503L453 1297L203 1297L203 1147L-3 1147L-3 1453M497 1503L903 1503L903 1447L853 1447L853 1397L803 1397L803 1347L753 1347L753 1297L497 1297L497 1503M53 1403L97 1403L97 1447L53 1447L53 1403M103 1353L147 1353L147 1397L103 1397L103 1353M153 1303L197 1303L197 1347L153 1347L153 1303Z"  horiz-adv-x="1150" vert-adv-y="1000"  />

      
      <glyph glyph-name="uni23" unicode="&#x23;" d="M0 1450L50 1450L50 1400L100 1400L100 1350L150 1350L150 1300L200 1300L200 800L100 800L100 700L200 700L200 200L150 200L150 150L100 150L100 100L50 100L50 50L0 50L0 600L50 600L50 650L0 650L0 850L50 850L50 900L0 900L0 1450M750 1300L800 1300L800 1350L850 1350L850 1400L900 1400L900 1450L950 1450L950 900L900 900L900 850L950 850L950 650L900 650L900 600L950 600L950 50L900 50L900 100L850 100L850 150L800 150L800 200L750 200L750 700L850 700L850 800L750 800L750 1300M250 1050L300 1050L300 1100L650 1100L650 1050L700 1050L700 950L650 950L650 900L300 900L300 950L250 950L250 1050M250 550L300 550L300 600L650 600L650 550L700 550L700 450L650 450L650 400L300 400L300 450L250 450L250 550M850 800L900 800L900 850L850 850L850 800M50 650L100 650L100 700L50 700L50 650M50 800L100 800L100 850L50 850L50 800M850 650L900 650L900 700L850 700L850 650Z"  horiz-adv-x="1150" vert-adv-y="1000"  />

      
      <glyph glyph-name="uni21" unicode="&#x21;" d="M0 1450L50 1450L50 1400L100 1400L100 1350L150 1350L150 1300L200 1300L200 800L100 800L100 700L200 700L200 400L150 400L150 350L100 350L100 300L50 300L50 250L0 250L0 600L50 600L50 650L0 650L0 850L50 850L50 900L0 900L0 1450M0 200L200 200L200 0L0 0L0 200M50 650L100 650L100 700L50 700L50 650M50 800L100 800L100 850L50 850L50 800Z"  horiz-adv-x="1150" vert-adv-y="1000"  />

      
      <glyph glyph-name="uni22" unicode="&#x22;" d="M0 1450L50 1450L50 1400L100 1400L100 1350L150 1350L150 1300L200 1300L200 800L100 800L100 850L50 850L50 900L0 900L0 1450M400 1450L450 1450L450 1400L500 1400L500 1350L550 1350L550 1300L600 1300L600 800L500 800L500 850L450 850L450 900L400 900L400 1450Z"  horiz-adv-x="1150" vert-adv-y="1000"  />

      
      <glyph glyph-name="uni61" unicode="&#x61;" d="M0 1450L50 1450L50 1500L450 1500L450 1300L200 1300L200 800L250 800L250 850L700 850L700 800L750 800L750 1300L500 1300L500 1500L900 1500L900 1450L950 1450L950 900L900 900L900 850L950 850L950 650L900 650L900 600L950 600L950 50L900 50L900 100L850 100L850 150L800 150L800 200L750 200L750 700L700 700L700 650L250 650L250 700L200 700L200 200L150 200L150 150L100 150L100 100L50 100L50 50L0 50L0 600L50 600L50 650L0 650L0 850L50 850L50 900L0 900L0 1450M100 700L200 700L200 800L100 800L100 700M750 700L850 700L850 800L750 800L750 700M850 1400L900 1400L900 1450L850 1450L850 1400M850 650L900 650L900 700L850 700L850 650M50 650L100 650L100 700L50 700L50 650M50 800L100 800L100 850L50 850L50 800M50 1400L100 1400L100 1450L50 1450L50 1400M100 1350L150 1350L150 1400L100 1400L100 1350M150 1300L200 1300L200 1350L150 1350L150 1300M750 1300L800 1300L800 1350L750 1350L750 1300M800 1350L850 1350L850 1400L800 1400L800 1350M850 800L900 800L900 850L850 850L850 800Z"  horiz-adv-x="1150" vert-adv-y="1000"  />

      
      <glyph glyph-name="uni62" unicode="&#x62;" d="M0 1450L50 1450L50 1500L450 1500L450 1300L200 1300L200 800L250 800L250 850L700 850L700 800L750 800L750 1300L500 1300L500 1500L900 1500L900 1450L950 1450L950 900L900 900L900 850L850 850L850 800L750 800L750 700L850 700L850 650L900 650L900 600L950 600L950 50L900 50L900 0L500 0L500 200L750 200L750 700L700 700L700 650L250 650L250 700L200 700L200 200L450 200L450 0L50 0L50 50L0 50L0 600L50 600L50 650L0 650L0 850L50 850L50 900L0 900L0 1450M100 700L200 700L200 800L100 800L100 700M800 1350L850 1350L850 1400L800 1400L800 1350M750 150L800 150L800 200L750 200L750 150M750 1300L800 1300L800 1350L750 1350L750 1300M800 100L850 100L850 150L800 150L800 100M850 50L900 50L900 100L850 100L850 50M850 1400L900 1400L900 1450L850 1450L850 1400M50 50L100 50L100 100L50 100L50 50M50 650L100 650L100 700L50 700L50 650M50 800L100 800L100 850L50 850L50 800M50 1400L100 1400L100 1450L50 1450L50 1400M100 100L150 100L150 150L100 150L100 100M100 1350L150 1350L150 1400L100 1400L100 1350M150 150L200 150L200 200L150 200L150 150M150 1300L200 1300L200 1350L150 1350L150 1300Z"  horiz-adv-x="1150" vert-adv-y="1000"  />

      
      <glyph glyph-name="uni63" unicode="&#x63;" d="M0 1450L50 1450L50 1500L450 1500L450 1300L200 1300L200 800L100 800L100 700L200 700L200 200L450 200L450 0L50 0L50 50L0 50L0 600L50 600L50 650L0 650L0 850L50 850L50 900L0 900L0 1450M500 1500L900 1500L900 1450L850 1450L850 1400L800 1400L800 1350L750 1350L750 1300L500 1300L500 1500M500 200L750 200L750 150L800 150L800 100L850 100L850 50L900 50L900 0L500 0L500 200M50 50L100 50L100 100L50 100L50 50M50 650L100 650L100 700L50 700L50 650M50 800L100 800L100 850L50 850L50 800M50 1400L100 1400L100 1450L50 1450L50 1400M100 100L150 100L150 150L100 150L100 100M150 150L200 150L200 200L150 200L150 150M100 1350L150 1350L150 1400L100 1400L100 1350M150 1300L200 1300L200 1350L150 1350L150 1300Z"  horiz-adv-x="1150" vert-adv-y="1000"  />

      
      <glyph glyph-name="uni64" unicode="&#x64;" d="M0 1450L50 1450L50 1500L450 1500L450 1300L200 1300L200 800L100 800L100 700L200 700L200 200L450 200L450 0L50 0L50 50L0 50L0 600L50 600L50 650L0 650L0 850L50 850L50 900L0 900L0 1450M500 1500L900 1500L900 1450L950 1450L950 900L900 900L900 850L850 850L850 800L750 800L750 1300L500 1300L500 1500M500 200L750 200L750 700L850 700L850 650L900 650L900 600L950 600L950 50L900 50L900 0L500 0L500 200M850 1400L900 1400L900 1450L850 1450L850 1400M50 50L100 50L100 100L50 100L50 50M50 650L100 650L100 700L50 700L50 650M50 800L100 800L100 850L50 850L50 800M50 1400L100 1400L100 1450L50 1450L50 1400M100 100L150 100L150 150L100 150L100 100M100 1350L150 1350L150 1400L100 1400L100 1350M150 150L200 150L200 200L150 200L150 150M150 1300L200 1300L200 1350L150 1350L150 1300M750 150L800 150L800 200L750 200L750 150M750 1300L800 1300L800 1350L750 1350L750 1300M800 100L850 100L850 150L800 150L800 100M800 1350L850 1350L850 1400L800 1400L800 1350M850 50L900 50L900 100L850 100L850 50Z"  horiz-adv-x="1150" vert-adv-y="1000"  />

      
      <glyph glyph-name="uni65" unicode="&#x65;" d="M0 1450L50 1450L50 1500L450 1500L450 1300L200 1300L200 800L250 800L250 850L700 850L700 800L750 800L750 700L700 700L700 650L250 650L250 700L200 700L200 200L450 200L450 0L50 0L50 50L0 50L0 600L50 600L50 650L0 650L0 850L50 850L50 900L0 900L0 1450M500 1500L900 1500L900 1450L850 1450L850 1400L800 1400L800 1350L750 1350L750 1300L500 1300L500 1500M500 200L750 200L750 150L800 150L800 100L850 100L850 50L900 50L900 0L500 0L500 200M200 800L200 700L100 700L100 800L200 800M50 50L100 50L100 100L50 100L50 50M50 650L100 650L100 700L50 700L50 650M50 800L100 800L100 850L50 850L50 800M50 1400L100 1400L100 1450L50 1450L50 1400M100 100L150 100L150 150L100 150L100 100M100 1350L150 1350L150 1400L100 1400L100 1350M150 150L200 150L200 200L150 200L150 150M150 1300L200 1300L200 1350L150 1350L150 1300Z"  horiz-adv-x="1150" vert-adv-y="1000"  />

      
      <glyph glyph-name="uni66" unicode="&#x66;" d="M0 1450L50 1450L50 1500L450 1500L450 1300L200 1300L200 800L250 800L250 850L700 850L700 800L750 800L750 700L700 700L700 650L250 650L250 700L200 700L200 200L150 200L150 150L100 150L100 100L50 100L50 50L0 50L0 600L50 600L50 650L0 650L0 850L50 850L50 900L0 900L0 1450M500 1500L900 1500L900 1450L850 1450L850 1400L800 1400L800 1350L750 1350L750 1300L500 1300L500 1500M100 700L200 700L200 800L100 800L100 700M50 650L100 650L100 700L50 700L50 650M50 800L100 800L100 850L50 850L50 800M50 1400L100 1400L100 1450L50 1450L50 1400M100 1350L150 1350L150 1400L100 1400L100 1350M150 1300L200 1300L200 1350L150 1350L150 1300Z"  horiz-adv-x="1150" vert-adv-y="1000"  />

      
      <glyph glyph-name="uni67" unicode="&#x67;" d="M0 1450L50 1450L50 1500L450 1500L450 1300L200 1300L200 800L100 800L100 700L200 700L200 200L450 200L450 0L50 0L50 50L0 50L0 600L50 600L50 650L0 650L0 850L50 850L50 900L0 900L0 1450M500 200L750 200L750 700L850 700L850 650L900 650L900 600L950 600L950 50L900 50L900 0L500 0L500 200M500 1500L900 1500L900 1450L850 1450L850 1400L800 1400L800 1350L750 1350L750 1300L500 1300L500 1500M50 50L100 50L100 100L50 100L50 50M50 650L100 650L100 700L50 700L50 650M50 800L100 800L100 850L50 850L50 800M50 1400L100 1400L100 1450L50 1450L50 1400M100 100L150 100L150 150L100 150L100 100M100 1350L150 1350L150 1400L100 1400L100 1350M150 150L200 150L200 200L150 200L150 150M150 1300L200 1300L200 1350L150 1350L150 1300M750 150L800 150L800 200L750 200L750 150M800 100L850 100L850 150L800 150L800 100M850 50L900 50L900 100L850 100L850 50Z"  horiz-adv-x="1150" vert-adv-y="1000"  />

      
      <glyph glyph-name="uni68" unicode="&#x68;" d="M0 1450L50 1450L50 1400L100 1400L100 1350L150 1350L150 1300L200 1300L200 800L250 800L250 850L700 850L700 800L750 800L750 1300L800 1300L800 1350L850 1350L850 1400L900 1400L900 1450L950 1450L950 900L900 900L900 850L950 850L950 650L900 650L900 600L950 600L950 50L900 50L900 100L850 100L850 150L800 150L800 200L750 200L750 700L700 700L700 650L250 650L250 700L200 700L200 200L150 200L150 150L100 150L100 100L50 100L50 50L0 50L0 600L50 600L50 650L0 650L0 850L50 850L50 900L0 900L0 1450M100 700L200 700L200 800L100 800L100 700M750 700L850 700L850 800L750 800L750 700M50 650L100 650L100 700L50 700L50 650M50 800L100 800L100 850L50 850L50 800M850 650L900 650L900 700L850 700L850 650M850 800L900 800L900 850L850 850L850 800Z"  horiz-adv-x="1150" vert-adv-y="1000"  />

      
      <glyph glyph-name="uni69" unicode="&#x69;" d="M750 1300L800 1300L800 1350L850 1350L850 1400L900 1400L900 1450L950 1450L950 900L900 900L900 850L950 850L950 650L900 650L900 600L950 600L950 50L900 50L900 100L850 100L850 150L800 150L800 200L750 200L750 700L850 700L850 800L750 800L750 1300M850 800L900 800L900 850L850 850L850 800M850 650L900 650L900 700L850 700L850 650Z"  horiz-adv-x="1150" vert-adv-y="1000"  />

      
      <glyph glyph-name="uni6a" unicode="&#x6a;" d="M500 1500L900 1500L900 1450L950 1450L950 900L900 900L900 850L950 850L950 650L900 650L900 600L950 600L950 50L900 50L900 0L500 0L500 200L750 200L750 700L850 700L850 800L750 800L750 1300L500 1300L500 1500M0 600L50 600L50 650L100 650L100 700L200 700L200 200L450 200L450 0L50 0L50 50L0 50L0 600M50 1500L450 1500L450 1300L200 1300L200 1350L150 1350L150 1400L100 1400L100 1450L50 1450L50 1500M50 50L100 50L100 100L50 100L50 50M850 650L900 650L900 700L850 700L850 650M100 100L150 100L150 150L100 150L100 100M150 150L200 150L200 200L150 200L150 150M750 150L800 150L800 200L750 200L750 150M750 1300L800 1300L800 1350L750 1350L750 1300M800 100L850 100L850 150L800 150L800 100M800 1350L850 1350L850 1400L800 1400L800 1350M850 50L900 50L900 100L850 100L850 50M850 800L900 800L900 850L850 850L850 800M850 1400L900 1400L900 1450L850 1450L850 1400Z"  horiz-adv-x="1150" vert-adv-y="1000"  />

      
      <glyph glyph-name="uni6b" unicode="&#x6b;" d="M0 1450L50 1450L50 1400L100 1400L100 1350L150 1350L150 1300L200 1300L200 800L250 800L250 850L700 850L700 800L750 800L750 1300L800 1300L800 1350L850 1350L850 1400L900 1400L900 1450L950 1450L950 900L900 900L900 850L850 850L850 800L750 800L750 700L850 700L850 650L900 650L900 600L950 600L950 50L900 50L900 100L850 100L850 150L800 150L800 200L750 200L750 700L700 700L700 650L250 650L250 700L200 700L200 200L150 200L150 150L100 150L100 100L50 100L50 50L0 50L0 600L50 600L50 650L0 650L0 850L50 850L50 900L0 900L0 1450M200 800L200 700L100 700L100 800L200 800M50 650L100 650L100 700L50 700L50 650M50 800L100 800L100 850L50 850L50 800Z"  horiz-adv-x="1150" vert-adv-y="1000"  />

      
      <glyph glyph-name="uni6c" unicode="&#x6c;" d="M0 1450L50 1450L50 1400L100 1400L100 1350L150 1350L150 1300L200 1300L200 800L100 800L100 700L200 700L200 200L450 200L450 0L50 0L50 50L0 50L0 600L50 600L50 650L0 650L0 850L50 850L50 900L0 900L0 1450M500 200L750 200L750 700L850 700L850 650L900 650L900 600L950 600L950 50L900 50L900 0L500 0L500 200M50 50L100 50L100 100L50 100L50 50M50 650L100 650L100 700L50 700L50 650M50 800L100 800L100 850L50 850L50 800M100 100L150 100L150 150L100 150L100 100M150 150L200 150L200 200L150 200L150 150M750 150L800 150L800 200L750 200L750 150M800 100L850 100L850 150L800 150L800 100M850 50L900 50L900 100L850 100L850 50Z"  horiz-adv-x="1150" vert-adv-y="1000"  />

      
      <glyph glyph-name="uni6d" unicode="&#x6d;" d="M0 1450L50 1450L50 1500L450 1500L450 1300L500 1300L500 1500L900 1500L900 1450L950 1450L950 900L900 900L900 850L950 850L950 650L900 650L900 600L950 600L950 50L900 50L900 100L850 100L850 150L800 150L800 200L750 200L750 700L850 700L850 800L750 800L750 1300L500 1300L500 1250L550 1250L550 950L500 950L500 900L450 900L450 950L400 950L400 1250L450 1250L450 1300L200 1300L200 800L100 800L100 700L200 700L200 200L150 200L150 150L100 150L100 100L50 100L50 50L0 50L0 600L50 600L50 650L0 650L0 850L50 850L50 900L0 900L0 1450M850 800L900 800L900 850L850 850L850 800M50 650L100 650L100 700L50 700L50 650M50 800L100 800L100 850L50 850L50 800M50 1400L100 1400L100 1450L50 1450L50 1400M100 1350L150 1350L150 1400L100 1400L100 1350M150 1300L200 1300L200 1350L150 1350L150 1300M750 1300L800 1300L800 1350L750 1350L750 1300M800 1350L850 1350L850 1400L800 1400L800 1350M850 650L900 650L900 700L850 700L850 650M850 1400L900 1400L900 1450L850 1450L850 1400Z"  horiz-adv-x="1150" vert-adv-y="1000"  />

      
      <glyph glyph-name="uni6e" unicode="&#x6e;" d="M0 1450L50 1450L50 1400L100 1400L100 1350L150 1350L150 1300L200 1300L200 800L100 800L100 700L200 700L200 200L150 200L150 150L100 150L100 100L50 100L50 50L0 50L0 600L50 600L50 650L0 650L0 850L50 850L50 900L0 900L0 1450M750 1300L800 1300L800 1350L850 1350L850 1400L900 1400L900 1450L950 1450L950 900L900 900L900 850L950 850L950 650L900 650L900 600L950 600L950 50L900 50L900 100L850 100L850 150L800 150L800 200L750 200L750 700L850 700L850 800L750 800L750 1300M250 1200L300 1200L300 1150L350 1150L350 1100L400 1100L400 1050L450 1050L450 1000L500 1000L500 950L550 950L550 900L600 900L600 850L650 850L650 800L700 800L700 550L650 550L650 600L600 600L600 650L550 650L550 700L500 700L500 750L450 750L450 800L400 800L400 850L350 850L350 900L300 900L300 950L250 950L250 1200M50 650L100 650L100 700L50 700L50 650M50 800L100 800L100 850L50 850L50 800M850 650L900 650L900 700L850 700L850 650M850 800L900 800L900 850L850 850L850 800Z"  horiz-adv-x="1150" vert-adv-y="1000"  />

      
      <glyph glyph-name="uni6f" unicode="&#x6f;" d="M0 1450L50 1450L50 1500L450 1500L450 1300L200 1300L200 800L100 800L100 850L50 850L50 900L0 900L0 1450M0 600L50 600L50 650L100 650L100 700L200 700L200 200L450 200L450 0L50 0L50 50L0 50L0 600M500 200L750 200L750 700L850 700L850 650L900 650L900 600L950 600L950 50L900 50L900 0L500 0L500 200M500 1500L900 1500L900 1450L950 1450L950 900L900 900L900 850L850 850L850 800L750 800L750 1300L500 1300L500 1500M850 1400L900 1400L900 1450L850 1450L850 1400M50 50L100 50L100 100L50 100L50 50M50 1400L100 1400L100 1450L50 1450L50 1400M100 100L150 100L150 150L100 150L100 100M100 1350L150 1350L150 1400L100 1400L100 1350M150 150L200 150L200 200L150 200L150 150M150 1300L200 1300L200 1350L150 1350L150 1300M750 150L800 150L800 200L750 200L750 150M750 1300L800 1300L800 1350L750 1350L750 1300M800 100L850 100L850 150L800 150L800 100M800 1350L850 1350L850 1400L800 1400L800 1350M850 50L900 50L900 100L850 100L850 50Z"  horiz-adv-x="1150" vert-adv-y="1000"  />

      
      <glyph glyph-name="uni70" unicode="&#x70;" d="M0 1450L50 1450L50 1500L450 1500L450 1300L200 1300L200 800L250 800L250 850L700 850L700 800L750 800L750 1300L500 1300L500 1500L900 1500L900 1450L950 1450L950 900L900 900L900 850L850 850L850 800L750 800L750 700L700 700L700 650L250 650L250 700L200 700L200 200L150 200L150 150L100 150L100 100L50 100L50 50L0 50L0 600L50 600L50 650L0 650L0 850L50 850L50 900L0 900L0 1450M100 700L200 700L200 800L100 800L100 700M50 650L100 650L100 700L50 700L50 650M50 800L100 800L100 850L50 850L50 800M50 1400L100 1400L100 1450L50 1450L50 1400M100 1350L150 1350L150 1400L100 1400L100 1350M150 1300L200 1300L200 1350L150 1350L150 1300M750 1300L800 1300L800 1350L750 1350L750 1300M800 1350L850 1350L850 1400L800 1400L800 1350M850 1400L900 1400L900 1450L850 1450L850 1400Z"  horiz-adv-x="1150" vert-adv-y="1000"  />

      
      <glyph glyph-name="uni71" unicode="&#x71;" d="M0 1450L50 1450L50 1500L450 1500L450 1300L200 1300L200 800L100 800L100 850L50 850L50 900L0 900L0 1450M500 1500L900 1500L900 1450L950 1450L950 900L900 900L900 850L850 850L850 800L750 800L750 1300L500 1300L500 1500M0 600L50 600L50 650L100 650L100 700L200 700L200 200L450 200L450 0L50 0L50 50L0 50L0 600M500 200L750 200L750 700L850 700L850 650L900 650L900 600L950 600L950 50L900 50L900 0L500 0L500 200M500 400L550 400L550 450L700 450L700 250L500 250L500 400M800 1350L850 1350L850 1400L800 1400L800 1350M850 50L900 50L900 100L850 100L850 50M850 1400L900 1400L900 1450L850 1450L850 1400M50 50L100 50L100 100L50 100L50 50M50 1400L100 1400L100 1450L50 1450L50 1400M100 100L150 100L150 150L100 150L100 100M100 1350L150 1350L150 1400L100 1400L100 1350M150 150L200 150L200 200L150 200L150 150M150 1300L200 1300L200 1350L150 1350L150 1300M750 150L800 150L800 200L750 200L750 150M750 1300L800 1300L800 1350L750 1350L750 1300M800 100L850 100L850 150L800 150L800 100Z"  horiz-adv-x="1150" vert-adv-y="1000"  />

      
      <glyph glyph-name="uni72" unicode="&#x72;" d="M0 1450L50 1450L50 1500L450 1500L450 1300L200 1300L200 800L250 800L250 850L700 850L700 800L750 800L750 1300L500 1300L500 1500L900 1500L900 1450L950 1450L950 900L900 900L900 850L850 850L850 800L750 800L750 700L850 700L850 650L900 650L900 600L950 600L950 50L900 50L900 100L850 100L850 150L800 150L800 200L750 200L750 700L700 700L700 650L250 650L250 700L200 700L200 200L150 200L150 150L100 150L100 100L50 100L50 50L0 50L0 600L50 600L50 650L0 650L0 850L50 850L50 900L0 900L0 1450M100 700L200 700L200 800L100 800L100 700M50 650L100 650L100 700L50 700L50 650M50 800L100 800L100 850L50 850L50 800M800 1350L850 1350L850 1400L800 1400L800 1350M50 1400L100 1400L100 1450L50 1450L50 1400M750 1300L800 1300L800 1350L750 1350L750 1300M100 1350L150 1350L150 1400L100 1400L100 1350M150 1300L200 1300L200 1350L150 1350L150 1300M850 1400L900 1400L900 1450L850 1450L850 1400Z"  horiz-adv-x="1150" vert-adv-y="1000"  />

      
      <glyph glyph-name="uni73" unicode="&#x73;" d="M0 1450L50 1450L50 1500L450 1500L450 1300L200 1300L200 800L250 800L250 850L700 850L700 800L750 800L750 700L850 700L850 650L900 650L900 600L950 600L950 50L900 50L900 0L500 0L500 200L750 200L750 700L700 700L700 650L250 650L250 700L200 700L200 800L100 800L100 850L50 850L50 900L0 900L0 1450M500 1500L900 1500L900 1450L850 1450L850 1400L800 1400L800 1350L750 1350L750 1300L500 1300L500 1500M50 50L100 50L100 100L150 100L150 150L200 150L200 200L450 200L450 0L50 0L50 50M50 1400L100 1400L100 1450L50 1450L50 1400M100 1350L150 1350L150 1400L100 1400L100 1350M150 1300L200 1300L200 1350L150 1350L150 1300M750 150L800 150L800 200L750 200L750 150M800 100L850 100L850 150L800 150L800 100M850 50L900 50L900 100L850 100L850 50Z"  horiz-adv-x="1150" vert-adv-y="1000"  />

      
      <glyph glyph-name="uni74" unicode="&#x74;" d="M0 1500L500 1500L500 1450L550 1450L550 1500L950 1500L950 1450L900 1450L900 1400L850 1400L850 1350L800 1350L800 1300L600 1300L600 1450L550 1450L550 900L500 900L500 850L550 850L550 650L500 650L500 600L550 600L550 50L500 50L500 100L450 100L450 150L400 150L400 200L350 200L350 700L450 700L450 800L350 800L350 1300L150 1300L150 1350L100 1350L100 1400L50 1400L50 1450L0 1450L0 1500M350 1300L400 1300L400 1350L350 1350L350 1300M450 650L500 650L500 700L450 700L450 650M400 1350L450 1350L450 1400L400 1400L400 1350M450 800L500 800L500 850L450 850L450 800M450 1400L500 1400L500 1450L450 1450L450 1400Z"  horiz-adv-x="1150" vert-adv-y="1000"  />

      
      <glyph glyph-name="uni75" unicode="&#x75;" d="M0 1450L50 1450L50 1400L100 1400L100 1350L150 1350L150 1300L200 1300L200 800L100 800L100 700L200 700L200 200L450 200L450 0L50 0L50 50L0 50L0 600L50 600L50 650L0 650L0 850L50 850L50 900L0 900L0 1450M750 1300L800 1300L800 1350L850 1350L850 1400L900 1400L900 1450L950 1450L950 900L900 900L900 850L950 850L950 650L900 650L900 600L950 600L950 50L900 50L900 0L500 0L500 200L750 200L750 700L850 700L850 800L750 800L750 1300M50 50L100 50L100 100L50 100L50 50M850 800L900 800L900 850L850 850L850 800M50 650L100 650L100 700L50 700L50 650M50 800L100 800L100 850L50 850L50 800M100 100L150 100L150 150L100 150L100 100M150 150L200 150L200 200L150 200L150 150M750 150L800 150L800 200L750 200L750 150M800 100L850 100L850 150L800 150L800 100M850 50L900 50L900 100L850 100L850 50M850 650L900 650L900 700L850 700L850 650Z"  horiz-adv-x="1150" vert-adv-y="1000"  />

      
      <glyph glyph-name="uni76" unicode="&#x76;" d="M0 1450L50 1450L50 1400L100 1400L100 1350L150 1350L150 1300L200 1300L200 800L100 800L100 700L200 700L200 200L450 200L450 0L350 0L350 50L300 50L300 100L250 100L250 150L200 150L200 200L150 200L150 250L100 250L100 300L50 300L50 350L0 350L0 600L50 600L50 650L0 650L0 850L50 850L50 900L0 900L0 1450M750 1300L800 1300L800 1350L850 1350L850 1400L900 1400L900 1450L950 1450L950 900L900 900L900 850L950 850L950 650L900 650L900 600L950 600L950 350L900 350L900 300L850 300L850 250L800 250L800 200L750 200L750 150L700 150L700 100L650 100L650 50L600 50L600 0L500 0L500 200L750 200L750 700L850 700L850 800L750 800L750 1300M850 650L900 650L900 700L850 700L850 650M850 800L900 800L900 850L850 850L850 800M50 650L100 650L100 700L50 700L50 650M50 800L100 800L100 850L50 850L50 800Z"  horiz-adv-x="1150" vert-adv-y="1000"  />

      
      <glyph glyph-name="uni77" unicode="&#x77;" d="M0 1450L50 1450L50 1400L100 1400L100 1350L150 1350L150 1300L200 1300L200 800L100 800L100 700L200 700L200 200L450 200L450 250L400 250L400 550L450 550L450 600L500 600L500 550L550 550L550 250L500 250L500 200L750 200L750 700L850 700L850 800L750 800L750 1300L800 1300L800 1350L850 1350L850 1400L900 1400L900 1450L950 1450L950 900L900 900L900 850L950 850L950 650L900 650L900 600L950 600L950 50L900 50L900 0L500 0L500 200L450 200L450 0L50 0L50 50L0 50L0 600L50 600L50 650L0 650L0 850L50 850L50 900L0 900L0 1450M50 50L100 50L100 100L50 100L50 50M50 650L100 650L100 700L50 700L50 650M50 800L100 800L100 850L50 850L50 800M100 100L150 100L150 150L100 150L100 100M150 150L200 150L200 200L150 200L150 150M750 150L800 150L800 200L750 200L750 150M800 100L850 100L850 150L800 150L800 100M850 50L900 50L900 100L850 100L850 50M850 650L900 650L900 700L850 700L850 650M850 800L900 800L900 850L850 850L850 800Z"  horiz-adv-x="1150" vert-adv-y="1000"  />

      
      <glyph glyph-name="uni78" unicode="&#x78;" d="M0 1450L50 1450L50 1400L100 1400L100 1350L150 1350L150 1300L200 1300L200 800L250 800L250 850L700 850L700 800L750 800L750 1300L800 1300L800 1350L850 1350L850 1400L900 1400L900 1450L950 1450L950 900L900 900L900 850L850 850L850 800L750 800L750 700L850 700L850 650L900 650L900 600L950 600L950 50L900 50L900 100L850 100L850 150L800 150L800 200L750 200L750 700L700 700L700 650L250 650L250 700L200 700L200 200L150 200L150 150L100 150L100 100L50 100L50 50L0 50L0 600L50 600L50 650L100 650L100 700L200 700L200 800L100 800L100 850L50 850L50 900L0 900L0 1450Z"  horiz-adv-x="1150" vert-adv-y="1000"  />

      
      <glyph glyph-name="uni79" unicode="&#x79;" d="M0 1450L50 1450L50 1400L100 1400L100 1350L150 1350L150 1300L200 1300L200 800L250 800L250 850L700 850L700 800L750 800L750 1300L800 1300L800 1350L850 1350L850 1400L900 1400L900 1450L950 1450L950 900L900 900L900 850L950 850L950 650L900 650L900 600L950 600L950 50L900 50L900 0L500 0L500 200L750 200L750 700L700 700L700 650L250 650L250 700L200 700L200 800L100 800L100 850L50 850L50 900L0 900L0 1450M50 50L100 50L100 100L150 100L150 150L200 150L200 200L450 200L450 0L50 0L50 50M750 800L750 700L850 700L850 800L750 800M850 650L900 650L900 700L850 700L850 650M750 150L800 150L800 200L750 200L750 150M800 100L850 100L850 150L800 150L800 100M850 50L900 50L900 100L850 100L850 50M850 800L900 800L900 850L850 850L850 800Z"  horiz-adv-x="1150" vert-adv-y="1000"  />

      
      <glyph glyph-name="uni7a" unicode="&#x7a;" d="M500 1500L900 1500L900 1450L950 1450L950 900L900 900L900 850L850 850L850 800L750 800L750 700L700 700L700 650L250 650L250 700L200 700L200 200L450 200L450 0L50 0L50 50L0 50L0 600L50 600L50 650L100 650L100 700L200 700L200 800L250 800L250 850L700 850L700 800L750 800L750 1300L500 1300L500 1500M0 1450L50 1450L50 1500L450 1500L450 1300L200 1300L200 1350L150 1350L150 1300L0 1300L0 1450M500 200L750 200L750 150L800 150L800 200L950 200L950 50L900 50L900 0L500 0L500 200M50 50L100 50L100 100L50 100L50 50M50 1400L100 1400L100 1450L50 1450L50 1400M100 100L150 100L150 150L100 150L100 100M100 1350L150 1350L150 1400L100 1400L100 1350M150 150L200 150L200 200L150 200L150 150M750 1300L800 1300L800 1350L750 1350L750 1300M800 100L850 100L850 150L800 150L800 100M800 1350L850 1350L850 1400L800 1400L800 1350M850 50L900 50L900 100L850 100L850 50M850 1400L900 1400L900 1450L850 1450L850 1400Z"  horiz-adv-x="1150" vert-adv-y="1000"  />

      

  </font>
</defs>
</svg>
