<?xml version="1.0" encoding="utf-8"?>
<!-- Generator: Adobe Illustrator 21.0.0, SVG Export Plug-In . SVG Version: 6.00 Build 0)  -->
<svg version="1.1" id="Layer_1" xmlns="http://www.w3.org/2000/svg" xmlns:xlink="http://www.w3.org/1999/xlink" x="0px" y="0px"
	 viewBox="0 0 512 512" style="enable-background:new 0 0 512 512;" xml:space="preserve">
<g>
	<path d="M491.5,0h-471C9.2,0,0,9.2,0,20.5v471C0,502.8,9.2,512,20.5,512h471c11.3,0,20.5-9.2,20.5-20.5v-471
		C512,9.2,502.8,0,491.5,0z M401.3,215.9c-0.6,2.7-2.2,6.7-4.5,11.4h0.1l-0.3,0.4c-13,27.6-46.8,81.7-46.8,81.7s-0.1-0.1-0.2-0.3
		l-9.9,17.2h47.7l-91,120.4l20.7-81.9h-37.5l13.1-54.2c-10.6,2.5-23,6-37.8,10.8c0,0-20,11.6-57.5-22.4c0,0-25.3-22.2-10.6-27.8
		c6.3-2.4,30.3-5.4,49.3-7.9c25.6-3.5,41.3-5.2,41.3-5.2s-78.9,1.2-97.7-1.7c-18.8-2.9-42.5-34-47.6-61.3c0,0-7.8-15,16.8-7.9
		s126.7,27.6,126.7,27.6S142.8,174.3,134,164.4c-8.8-9.9-26-53.9-23.7-81c0,0,1-6.7,7.9-4.9c0,0,98.1,44.6,165.2,69.1
		C350.5,171.8,408.8,184.3,401.3,215.9z"/>
</g>
</svg>
